<mxfile host="app.diagrams.net" modified="2023-07-31T11:00:28.426Z" agent="Mozilla/5.0 (Windows NT 10.0; Win64; x64) AppleWebKit/537.36 (KHTML, like Gecko) Chrome/115.0.0.0 Safari/537.36" etag="G6pg3tgMibary6qAt7N4" version="21.6.5" type="device">
  <diagram name="Страница 1" id="pkjPhECndRR-OE3ccN7v">
    <mxGraphModel dx="880" dy="1590" grid="1" gridSize="10" guides="1" tooltips="1" connect="1" arrows="1" fold="1" page="1" pageScale="1" pageWidth="827" pageHeight="1169" math="0" shadow="0">
      <root>
        <mxCell id="0" />
        <mxCell id="1" parent="0" />
        <mxCell id="TKasH2lV4JzCVuQ_4qr7-1" value="Гость" style="shape=umlActor;verticalLabelPosition=bottom;verticalAlign=top;html=1;outlineConnect=0;" vertex="1" parent="1">
          <mxGeometry x="30" y="60" width="30" height="60" as="geometry" />
        </mxCell>
        <mxCell id="TKasH2lV4JzCVuQ_4qr7-2" value="Простой поиск автора, книги, книжной серии по названию" style="ellipse;whiteSpace=wrap;html=1;" vertex="1" parent="1">
          <mxGeometry x="200" y="50" width="120" height="80" as="geometry" />
        </mxCell>
        <mxCell id="TKasH2lV4JzCVuQ_4qr7-3" value="Поиск базовой информации" style="ellipse;whiteSpace=wrap;html=1;" vertex="1" parent="1">
          <mxGeometry x="120" y="160" width="120" height="80" as="geometry" />
        </mxCell>
        <mxCell id="TKasH2lV4JzCVuQ_4qr7-4" value="Поиск полной информации" style="ellipse;whiteSpace=wrap;html=1;" vertex="1" parent="1">
          <mxGeometry x="280" y="160" width="120" height="80" as="geometry" />
        </mxCell>
        <mxCell id="TKasH2lV4JzCVuQ_4qr7-5" value="" style="endArrow=block;endSize=16;endFill=0;html=1;rounded=0;exitX=0.5;exitY=0;exitDx=0;exitDy=0;entryX=0;entryY=1;entryDx=0;entryDy=0;" edge="1" parent="1" source="TKasH2lV4JzCVuQ_4qr7-3" target="TKasH2lV4JzCVuQ_4qr7-2">
          <mxGeometry width="160" relative="1" as="geometry">
            <mxPoint x="330" y="80" as="sourcePoint" />
            <mxPoint x="490" y="80" as="targetPoint" />
          </mxGeometry>
        </mxCell>
        <mxCell id="TKasH2lV4JzCVuQ_4qr7-6" value="" style="endArrow=block;endSize=16;endFill=0;html=1;rounded=0;exitX=0.5;exitY=0;exitDx=0;exitDy=0;entryX=1;entryY=1;entryDx=0;entryDy=0;" edge="1" parent="1" source="TKasH2lV4JzCVuQ_4qr7-4" target="TKasH2lV4JzCVuQ_4qr7-2">
          <mxGeometry width="160" relative="1" as="geometry">
            <mxPoint x="190" y="170" as="sourcePoint" />
            <mxPoint x="234" y="132" as="targetPoint" />
          </mxGeometry>
        </mxCell>
        <mxCell id="TKasH2lV4JzCVuQ_4qr7-7" value="" style="endArrow=none;html=1;rounded=0;entryX=0.325;entryY=0.013;entryDx=0;entryDy=0;entryPerimeter=0;" edge="1" parent="1" target="TKasH2lV4JzCVuQ_4qr7-3">
          <mxGeometry width="50" height="50" relative="1" as="geometry">
            <mxPoint x="100" y="100" as="sourcePoint" />
            <mxPoint x="160" y="170" as="targetPoint" />
          </mxGeometry>
        </mxCell>
        <mxCell id="TKasH2lV4JzCVuQ_4qr7-8" value="Авторизованный&lt;br&gt;пользователь" style="shape=umlActor;verticalLabelPosition=bottom;verticalAlign=top;html=1;outlineConnect=0;" vertex="1" parent="1">
          <mxGeometry x="460" y="60" width="30" height="60" as="geometry" />
        </mxCell>
        <mxCell id="TKasH2lV4JzCVuQ_4qr7-11" value="" style="endArrow=none;html=1;rounded=0;entryX=0.667;entryY=0.025;entryDx=0;entryDy=0;entryPerimeter=0;" edge="1" parent="1" target="TKasH2lV4JzCVuQ_4qr7-4">
          <mxGeometry width="50" height="50" relative="1" as="geometry">
            <mxPoint x="420" y="100" as="sourcePoint" />
            <mxPoint x="179" y="181" as="targetPoint" />
          </mxGeometry>
        </mxCell>
        <mxCell id="TKasH2lV4JzCVuQ_4qr7-13" value="Регистрация" style="ellipse;whiteSpace=wrap;html=1;" vertex="1" parent="1">
          <mxGeometry x="200" y="-130" width="120" height="80" as="geometry" />
        </mxCell>
        <mxCell id="TKasH2lV4JzCVuQ_4qr7-14" value="Авторизация" style="ellipse;whiteSpace=wrap;html=1;" vertex="1" parent="1">
          <mxGeometry x="200" y="-40" width="120" height="80" as="geometry" />
        </mxCell>
        <mxCell id="TKasH2lV4JzCVuQ_4qr7-15" value="Администратор" style="shape=umlActor;verticalLabelPosition=bottom;verticalAlign=top;html=1;outlineConnect=0;" vertex="1" parent="1">
          <mxGeometry x="460" y="400" width="30" height="60" as="geometry" />
        </mxCell>
        <mxCell id="TKasH2lV4JzCVuQ_4qr7-16" value="" style="endArrow=block;endSize=16;endFill=0;html=1;rounded=0;" edge="1" parent="1">
          <mxGeometry width="160" relative="1" as="geometry">
            <mxPoint x="475" y="390" as="sourcePoint" />
            <mxPoint x="475" y="160" as="targetPoint" />
          </mxGeometry>
        </mxCell>
        <mxCell id="TKasH2lV4JzCVuQ_4qr7-17" value="" style="endArrow=none;html=1;rounded=0;entryX=0;entryY=0.5;entryDx=0;entryDy=0;" edge="1" parent="1" target="TKasH2lV4JzCVuQ_4qr7-14">
          <mxGeometry width="50" height="50" relative="1" as="geometry">
            <mxPoint x="100" y="100" as="sourcePoint" />
            <mxPoint x="179" y="160" as="targetPoint" />
          </mxGeometry>
        </mxCell>
        <mxCell id="TKasH2lV4JzCVuQ_4qr7-18" value="" style="endArrow=none;html=1;rounded=0;entryX=0;entryY=0.5;entryDx=0;entryDy=0;" edge="1" parent="1" target="TKasH2lV4JzCVuQ_4qr7-13">
          <mxGeometry width="50" height="50" relative="1" as="geometry">
            <mxPoint x="100" y="100" as="sourcePoint" />
            <mxPoint x="179" y="181" as="targetPoint" />
          </mxGeometry>
        </mxCell>
        <mxCell id="TKasH2lV4JzCVuQ_4qr7-19" value="" style="endArrow=none;html=1;rounded=0;entryX=1;entryY=0.5;entryDx=0;entryDy=0;" edge="1" parent="1" target="TKasH2lV4JzCVuQ_4qr7-14">
          <mxGeometry width="50" height="50" relative="1" as="geometry">
            <mxPoint x="420" y="100" as="sourcePoint" />
            <mxPoint x="210" y="10" as="targetPoint" />
          </mxGeometry>
        </mxCell>
        <mxCell id="TKasH2lV4JzCVuQ_4qr7-20" value="" style="endArrow=none;html=1;rounded=0;entryX=1;entryY=0.5;entryDx=0;entryDy=0;" edge="1" parent="1" target="TKasH2lV4JzCVuQ_4qr7-13">
          <mxGeometry width="50" height="50" relative="1" as="geometry">
            <mxPoint x="420" y="100" as="sourcePoint" />
            <mxPoint x="210" y="-80" as="targetPoint" />
          </mxGeometry>
        </mxCell>
        <mxCell id="TKasH2lV4JzCVuQ_4qr7-21" value="Расширенный поиск автора, книги, книжной серии по параметрам" style="ellipse;whiteSpace=wrap;html=1;" vertex="1" parent="1">
          <mxGeometry x="192" y="240" width="136" height="90" as="geometry" />
        </mxCell>
        <mxCell id="TKasH2lV4JzCVuQ_4qr7-22" value="Поиск базовой информации" style="ellipse;whiteSpace=wrap;html=1;" vertex="1" parent="1">
          <mxGeometry x="114" y="360" width="120" height="80" as="geometry" />
        </mxCell>
        <mxCell id="TKasH2lV4JzCVuQ_4qr7-23" value="Поиск полной информации" style="ellipse;whiteSpace=wrap;html=1;" vertex="1" parent="1">
          <mxGeometry x="274" y="360" width="120" height="80" as="geometry" />
        </mxCell>
        <mxCell id="TKasH2lV4JzCVuQ_4qr7-24" value="" style="endArrow=block;endSize=16;endFill=0;html=1;rounded=0;exitX=0.5;exitY=0;exitDx=0;exitDy=0;entryX=0;entryY=1;entryDx=0;entryDy=0;" edge="1" parent="1" source="TKasH2lV4JzCVuQ_4qr7-22" target="TKasH2lV4JzCVuQ_4qr7-21">
          <mxGeometry width="160" relative="1" as="geometry">
            <mxPoint x="324" y="280" as="sourcePoint" />
            <mxPoint x="484" y="280" as="targetPoint" />
          </mxGeometry>
        </mxCell>
        <mxCell id="TKasH2lV4JzCVuQ_4qr7-25" value="" style="endArrow=block;endSize=16;endFill=0;html=1;rounded=0;exitX=0.5;exitY=0;exitDx=0;exitDy=0;entryX=1;entryY=1;entryDx=0;entryDy=0;" edge="1" parent="1" source="TKasH2lV4JzCVuQ_4qr7-23" target="TKasH2lV4JzCVuQ_4qr7-21">
          <mxGeometry width="160" relative="1" as="geometry">
            <mxPoint x="184" y="370" as="sourcePoint" />
            <mxPoint x="228" y="332" as="targetPoint" />
          </mxGeometry>
        </mxCell>
        <mxCell id="TKasH2lV4JzCVuQ_4qr7-26" value="" style="endArrow=none;html=1;rounded=0;entryX=0;entryY=0.5;entryDx=0;entryDy=0;" edge="1" parent="1" target="TKasH2lV4JzCVuQ_4qr7-22">
          <mxGeometry width="50" height="50" relative="1" as="geometry">
            <mxPoint x="100" y="100" as="sourcePoint" />
            <mxPoint x="154" y="370" as="targetPoint" />
          </mxGeometry>
        </mxCell>
        <mxCell id="TKasH2lV4JzCVuQ_4qr7-27" value="" style="endArrow=none;html=1;rounded=0;entryX=1;entryY=0.5;entryDx=0;entryDy=0;" edge="1" parent="1" target="TKasH2lV4JzCVuQ_4qr7-23">
          <mxGeometry width="50" height="50" relative="1" as="geometry">
            <mxPoint x="420" y="100" as="sourcePoint" />
            <mxPoint x="173" y="381" as="targetPoint" />
          </mxGeometry>
        </mxCell>
        <mxCell id="TKasH2lV4JzCVuQ_4qr7-29" value="Работа с личным кабинетом" style="ellipse;whiteSpace=wrap;html=1;" vertex="1" parent="1">
          <mxGeometry x="535" y="60" width="120" height="80" as="geometry" />
        </mxCell>
        <mxCell id="TKasH2lV4JzCVuQ_4qr7-30" value="Include" style="endArrow=classic;endSize=16;endFill=1;html=1;rounded=0;exitX=0;exitY=0.5;exitDx=0;exitDy=0;entryX=0.5;entryY=0;entryDx=0;entryDy=0;" edge="1" parent="1" source="TKasH2lV4JzCVuQ_4qr7-31" target="TKasH2lV4JzCVuQ_4qr7-29">
          <mxGeometry width="160" relative="1" as="geometry">
            <mxPoint x="470" y="-30" as="sourcePoint" />
            <mxPoint x="630" y="-30" as="targetPoint" />
          </mxGeometry>
        </mxCell>
        <mxCell id="TKasH2lV4JzCVuQ_4qr7-31" value="Удаление аккаунта" style="ellipse;whiteSpace=wrap;html=1;" vertex="1" parent="1">
          <mxGeometry x="707" y="-75" width="120" height="80" as="geometry" />
        </mxCell>
        <mxCell id="TKasH2lV4JzCVuQ_4qr7-32" value="Выход из аккаунта" style="ellipse;whiteSpace=wrap;html=1;" vertex="1" parent="1">
          <mxGeometry x="707" y="15" width="120" height="80" as="geometry" />
        </mxCell>
        <mxCell id="TKasH2lV4JzCVuQ_4qr7-33" value="Изменение пароля" style="ellipse;whiteSpace=wrap;html=1;" vertex="1" parent="1">
          <mxGeometry x="707" y="105" width="120" height="80" as="geometry" />
        </mxCell>
        <mxCell id="TKasH2lV4JzCVuQ_4qr7-34" value="Просмотр &quot;книжной полки&quot;" style="ellipse;whiteSpace=wrap;html=1;" vertex="1" parent="1">
          <mxGeometry x="707" y="195" width="120" height="80" as="geometry" />
        </mxCell>
        <mxCell id="TKasH2lV4JzCVuQ_4qr7-35" value="Include" style="endArrow=classic;endSize=16;endFill=1;html=1;rounded=0;exitX=0;exitY=0.5;exitDx=0;exitDy=0;entryX=0.5;entryY=1;entryDx=0;entryDy=0;" edge="1" parent="1" source="TKasH2lV4JzCVuQ_4qr7-34" target="TKasH2lV4JzCVuQ_4qr7-29">
          <mxGeometry width="160" relative="1" as="geometry">
            <mxPoint x="680" y="-25" as="sourcePoint" />
            <mxPoint x="630" y="72" as="targetPoint" />
          </mxGeometry>
        </mxCell>
        <mxCell id="TKasH2lV4JzCVuQ_4qr7-36" value="Include" style="endArrow=classic;endSize=16;endFill=1;html=1;rounded=0;exitX=0;exitY=0.5;exitDx=0;exitDy=0;entryX=1;entryY=0;entryDx=0;entryDy=0;" edge="1" parent="1" source="TKasH2lV4JzCVuQ_4qr7-32" target="TKasH2lV4JzCVuQ_4qr7-29">
          <mxGeometry width="160" relative="1" as="geometry">
            <mxPoint x="691" y="-25" as="sourcePoint" />
            <mxPoint x="633" y="72" as="targetPoint" />
          </mxGeometry>
        </mxCell>
        <mxCell id="TKasH2lV4JzCVuQ_4qr7-37" value="Добавление книги на &quot;книжную полку&quot;" style="ellipse;whiteSpace=wrap;html=1;" vertex="1" parent="1">
          <mxGeometry x="415" y="-85" width="120" height="80" as="geometry" />
        </mxCell>
        <mxCell id="TKasH2lV4JzCVuQ_4qr7-38" value="" style="endArrow=none;html=1;rounded=0;entryX=0.5;entryY=1;entryDx=0;entryDy=0;" edge="1" parent="1" target="TKasH2lV4JzCVuQ_4qr7-37">
          <mxGeometry width="50" height="50" relative="1" as="geometry">
            <mxPoint x="475" y="50" as="sourcePoint" />
            <mxPoint x="330" y="-80" as="targetPoint" />
          </mxGeometry>
        </mxCell>
        <mxCell id="TKasH2lV4JzCVuQ_4qr7-39" value="" style="endArrow=none;html=1;rounded=0;entryX=0;entryY=0.5;entryDx=0;entryDy=0;" edge="1" parent="1" target="TKasH2lV4JzCVuQ_4qr7-29">
          <mxGeometry width="50" height="50" relative="1" as="geometry">
            <mxPoint x="500" y="100" as="sourcePoint" />
            <mxPoint x="485" y="5" as="targetPoint" />
          </mxGeometry>
        </mxCell>
        <mxCell id="TKasH2lV4JzCVuQ_4qr7-40" value="Include" style="endArrow=classic;endSize=16;endFill=1;html=1;rounded=0;exitX=0;exitY=0.5;exitDx=0;exitDy=0;entryX=1;entryY=1;entryDx=0;entryDy=0;" edge="1" parent="1" source="TKasH2lV4JzCVuQ_4qr7-33" target="TKasH2lV4JzCVuQ_4qr7-29">
          <mxGeometry width="160" relative="1" as="geometry">
            <mxPoint x="717" y="65" as="sourcePoint" />
            <mxPoint x="647" y="82" as="targetPoint" />
          </mxGeometry>
        </mxCell>
        <mxCell id="TKasH2lV4JzCVuQ_4qr7-41" value="Просмотр общей информации" style="ellipse;whiteSpace=wrap;html=1;" vertex="1" parent="1">
          <mxGeometry x="587" y="280" width="120" height="80" as="geometry" />
        </mxCell>
        <mxCell id="TKasH2lV4JzCVuQ_4qr7-42" value="Просмотр&amp;nbsp; информации о добавленных&lt;br&gt;&amp;nbsp;книгах" style="ellipse;whiteSpace=wrap;html=1;" vertex="1" parent="1">
          <mxGeometry x="827" y="275" width="120" height="80" as="geometry" />
        </mxCell>
        <mxCell id="TKasH2lV4JzCVuQ_4qr7-43" value="Удаление добавленных книг" style="ellipse;whiteSpace=wrap;html=1;" vertex="1" parent="1">
          <mxGeometry x="630" y="380" width="120" height="80" as="geometry" />
        </mxCell>
        <mxCell id="TKasH2lV4JzCVuQ_4qr7-44" value="Отметка о прочтении&lt;br&gt;добавленных книг" style="ellipse;whiteSpace=wrap;html=1;" vertex="1" parent="1">
          <mxGeometry x="780" y="380" width="120" height="80" as="geometry" />
        </mxCell>
        <mxCell id="TKasH2lV4JzCVuQ_4qr7-45" value="Include" style="endArrow=classic;endSize=16;endFill=1;html=1;rounded=0;entryX=0;entryY=1;entryDx=0;entryDy=0;exitX=0.5;exitY=0;exitDx=0;exitDy=0;" edge="1" parent="1" source="TKasH2lV4JzCVuQ_4qr7-41" target="TKasH2lV4JzCVuQ_4qr7-34">
          <mxGeometry width="160" relative="1" as="geometry">
            <mxPoint x="720" y="290" as="sourcePoint" />
            <mxPoint x="605" y="150" as="targetPoint" />
          </mxGeometry>
        </mxCell>
        <mxCell id="TKasH2lV4JzCVuQ_4qr7-46" value="Include" style="endArrow=classic;endSize=16;endFill=1;html=1;rounded=0;exitX=0.5;exitY=0;exitDx=0;exitDy=0;entryX=1;entryY=1;entryDx=0;entryDy=0;" edge="1" parent="1" source="TKasH2lV4JzCVuQ_4qr7-42" target="TKasH2lV4JzCVuQ_4qr7-34">
          <mxGeometry x="-0.0042" width="160" relative="1" as="geometry">
            <mxPoint x="727" y="255" as="sourcePoint" />
            <mxPoint x="615" y="160" as="targetPoint" />
            <mxPoint as="offset" />
          </mxGeometry>
        </mxCell>
        <mxCell id="TKasH2lV4JzCVuQ_4qr7-47" value="Include" style="endArrow=classic;endSize=16;endFill=1;html=1;rounded=0;" edge="1" parent="1" source="TKasH2lV4JzCVuQ_4qr7-43" target="TKasH2lV4JzCVuQ_4qr7-34">
          <mxGeometry width="160" relative="1" as="geometry">
            <mxPoint x="737" y="265" as="sourcePoint" />
            <mxPoint x="625" y="170" as="targetPoint" />
          </mxGeometry>
        </mxCell>
        <mxCell id="TKasH2lV4JzCVuQ_4qr7-48" value="Include" style="endArrow=classic;endSize=16;endFill=1;html=1;rounded=0;exitX=0.35;exitY=0.025;exitDx=0;exitDy=0;exitPerimeter=0;" edge="1" parent="1" source="TKasH2lV4JzCVuQ_4qr7-44" target="TKasH2lV4JzCVuQ_4qr7-34">
          <mxGeometry width="160" relative="1" as="geometry">
            <mxPoint x="747" y="275" as="sourcePoint" />
            <mxPoint x="610" y="230" as="targetPoint" />
          </mxGeometry>
        </mxCell>
        <mxCell id="TKasH2lV4JzCVuQ_4qr7-49" value="Изменение прав зарегистрированных&lt;br&gt;пользователей" style="ellipse;whiteSpace=wrap;html=1;" vertex="1" parent="1">
          <mxGeometry x="220" y="519" width="120" height="80" as="geometry" />
        </mxCell>
        <mxCell id="TKasH2lV4JzCVuQ_4qr7-50" value="Добавление книги" style="ellipse;whiteSpace=wrap;html=1;" vertex="1" parent="1">
          <mxGeometry x="480" y="519" width="120" height="80" as="geometry" />
        </mxCell>
        <mxCell id="TKasH2lV4JzCVuQ_4qr7-51" value="Изменение информации о книгах" style="ellipse;whiteSpace=wrap;html=1;" vertex="1" parent="1">
          <mxGeometry x="348" y="519" width="120" height="80" as="geometry" />
        </mxCell>
        <mxCell id="TKasH2lV4JzCVuQ_4qr7-52" value="Добавление сущности &lt;br&gt;книга-автор" style="ellipse;whiteSpace=wrap;html=1;" vertex="1" parent="1">
          <mxGeometry x="610" y="519" width="120" height="80" as="geometry" />
        </mxCell>
        <mxCell id="TKasH2lV4JzCVuQ_4qr7-54" value="" style="endArrow=none;html=1;rounded=0;exitX=0.5;exitY=0;exitDx=0;exitDy=0;" edge="1" parent="1" source="TKasH2lV4JzCVuQ_4qr7-49">
          <mxGeometry width="50" height="50" relative="1" as="geometry">
            <mxPoint x="510" y="400" as="sourcePoint" />
            <mxPoint x="470" y="490" as="targetPoint" />
          </mxGeometry>
        </mxCell>
        <mxCell id="TKasH2lV4JzCVuQ_4qr7-55" value="" style="endArrow=none;html=1;rounded=0;exitX=0.5;exitY=0;exitDx=0;exitDy=0;" edge="1" parent="1" source="TKasH2lV4JzCVuQ_4qr7-51">
          <mxGeometry width="50" height="50" relative="1" as="geometry">
            <mxPoint x="290" y="529" as="sourcePoint" />
            <mxPoint x="470" y="490" as="targetPoint" />
          </mxGeometry>
        </mxCell>
        <mxCell id="TKasH2lV4JzCVuQ_4qr7-56" value="" style="endArrow=none;html=1;rounded=0;exitX=0.5;exitY=0;exitDx=0;exitDy=0;" edge="1" parent="1" source="TKasH2lV4JzCVuQ_4qr7-50">
          <mxGeometry width="50" height="50" relative="1" as="geometry">
            <mxPoint x="300" y="539" as="sourcePoint" />
            <mxPoint x="470" y="490" as="targetPoint" />
          </mxGeometry>
        </mxCell>
        <mxCell id="TKasH2lV4JzCVuQ_4qr7-57" value="" style="endArrow=none;html=1;rounded=0;exitX=0.5;exitY=0;exitDx=0;exitDy=0;" edge="1" parent="1" source="TKasH2lV4JzCVuQ_4qr7-52">
          <mxGeometry width="50" height="50" relative="1" as="geometry">
            <mxPoint x="310" y="549" as="sourcePoint" />
            <mxPoint x="470" y="490" as="targetPoint" />
          </mxGeometry>
        </mxCell>
      </root>
    </mxGraphModel>
  </diagram>
</mxfile>
